HIERARCHY
ROOT root
{
	OFFSET	0	13.1	24.9
	CHANNELS 6  Xposition Yposition Zposition Xrotation Yrotation Zrotation
	JOINT spine_1
	{
		OFFSET	0	9.99999	0
		CHANNELS 3  Xrotation Yrotation Zrotation
		JOINT spine_2
		{
			OFFSET	0	112	-10
			CHANNELS 3  Xrotation Yrotation Zrotation
			JOINT spine_3
			{
				OFFSET	0	206.5	19.3
				CHANNELS 3  Xrotation Yrotation Zrotation
				JOINT spine_4
				{
					OFFSET	0	110.4	14.6
					CHANNELS 3  Xrotation Yrotation Zrotation
					JOINT neck_1
					{
						OFFSET	0	71.8	-50.3
						CHANNELS 3  Xrotation Yrotation Zrotation
						JOINT neck_2
						{
							OFFSET	0	86.2	-25.8
							CHANNELS 3  Xrotation Yrotation Zrotation
							JOINT head_ee
							{
								OFFSET	0	179.8	-8.7
								CHANNELS 3  Xrotation Yrotation Zrotation
								End Site
								{
									OFFSET	1	0	0
								}
							}
						}
					}
					JOINT left_clavicle
					{
						OFFSET	-43.2	22.4	-70.8
						CHANNELS 3  Xrotation Yrotation Zrotation
						JOINT left_shoulder
						{
							OFFSET	-93.9	-5.79999	48.7
							CHANNELS 3  Xrotation Yrotation Zrotation
							JOINT left_elbow
							{
								OFFSET	-291.4	-30.8	15.2
								CHANNELS 3  Xrotation Yrotation Zrotation
								JOINT left_lowarm_twist
								{
									OFFSET	-110.7	-3.89999	13.6
									CHANNELS 3  Xrotation Yrotation Zrotation
									JOINT left_hand
									{
										OFFSET	-110.7	-3.89999	13.6
										CHANNELS 3  Xrotation Yrotation Zrotation
										JOINT left_ee
										{
											OFFSET	-80.8	-5.10001	12.1
											CHANNELS 3  Xrotation Yrotation Zrotation
											End Site
											{
												OFFSET	1	0	0
											}
										}
									}
								}
							}
						}
					}
					JOINT right_clavicle
					{
						OFFSET	43.2	22.4	-70.8
						CHANNELS 3  Xrotation Yrotation Zrotation
						JOINT right_shoulder
						{
							OFFSET	93.9	-5.79999	48.7
							CHANNELS 3  Xrotation Yrotation Zrotation
							JOINT right_elbow
							{
								OFFSET	291.4	-30.8	15.2
								CHANNELS 3  Xrotation Yrotation Zrotation
								JOINT right_lowarm_twist
								{
									OFFSET	110.7	-3.89999	13.6
									CHANNELS 3  Xrotation Yrotation Zrotation
									JOINT right_hand
									{
										OFFSET	110.7	-3.89999	13.6
										CHANNELS 3  Xrotation Yrotation Zrotation
										JOINT right_ee
										{
											OFFSET	80.8	-5.10001	12.1
											CHANNELS 3  Xrotation Yrotation Zrotation
											End Site
											{
												OFFSET	1	0	0
											}
										}
									}
								}
							}
						}
					}
				}
			}
		}
	}
	JOINT left_hip
	{
		OFFSET	-82.8	-127.5	0.300001
		CHANNELS 3  Xrotation Yrotation Zrotation
		JOINT left_knee
		{
			OFFSET	-28.2	-396.7	2.2
			CHANNELS 3  Xrotation Yrotation Zrotation
			JOINT left_ankle
			{
				OFFSET	-11.7	-411.3	35.4
				CHANNELS 3  Xrotation Yrotation Zrotation
				JOINT left_toes
				{
					OFFSET	0	-60	-88.6
					CHANNELS 3  Xrotation Yrotation Zrotation
					JOINT left_foot_ee
					{
						OFFSET	-22.5	-16.5	-42.2
						CHANNELS 3  Xrotation Yrotation Zrotation
						End Site
						{
							OFFSET	1	0	0
						}
					}
				}
			}
		}
	}
	JOINT right_hip
	{
		OFFSET	82.8	-127.5	0.300001
		CHANNELS 3  Xrotation Yrotation Zrotation
		JOINT right_knee
		{
			OFFSET	28.2	-396.7	2.2
			CHANNELS 3  Xrotation Yrotation Zrotation
			JOINT right_ankle
			{
				OFFSET	11.7	-411.3	35.4
				CHANNELS 3  Xrotation Yrotation Zrotation
				JOINT right_toes
				{
					OFFSET	0	-60	-88.6
					CHANNELS 3  Xrotation Yrotation Zrotation
					JOINT right_foot_ee
					{
						OFFSET	22.5	-16.5	-42.2
						CHANNELS 3  Xrotation Yrotation Zrotation
						End Site
						{
							OFFSET	1	0	0
						}
					}
				}
			}
		}
	}
}
MOTION
Frames: 5
Frame Time: 0.02
593.204 691.2 -470.838 165.327 -83.804 159.652 -0.61984 0.571511 2.43232 -0.616644 0.415627 2.46373 -0.59623 -0.137394 2.49474 -0.604823 0.258203 2.48515 -8.05342 3.64722 -7.48033 -7.88975 12.0896 -6.64133 -0.0 0.0 -0.0 0.467451 19.2942 2.94787 -2.48145 -22.5919 75.662 0.936142 -24.8785 0.206501 -30.0467 -1.96007 3.25813 -2.12138 25.3434 -1.90388 -0.0 0.0 -0.0 12.431 25.737 -24.3972 2.17835 -21.5707 -68.589 1.03498 27.1436 -0.249856 -50.3596 4.11399 -4.70158 -7.92788 -29.8433 32.7707 0.0 0.0 0.0 1.16721 14.6521 1.27 -3.56552 0.130294 0.531596 31.6273 9.19731 -4.06597 -3.77776 0.0 0.0 -0.0 0.0 -0.0 0.820858 11.2707 1.39209 -22.708 -0.253654 -3.45273 36.3712 -12.3162 4.5625 -1.13339 0.0 0.0 0.0 0.0 0.0 
594.886 693.218 -471.674 168.662 -84.2436 162.548 -0.627823 0.594034 2.58333 -0.624212 0.428504 2.61586 -0.601791 -0.158616 2.64596 -0.611466 0.261105 2.63782 -8.54335 3.55093 -7.07334 -8.40611 11.584 -6.19815 -0.0 0.0 -0.0 0.572534 19.34 3.10856 -2.54836 -20.1445 75.6835 0.838949 -22.5671 0.167391 -29.8019 -1.93753 3.23629 -2.31682 28.269 -1.51978 -0.0 0.0 -0.0 12.0711 27.1567 -23.4075 2.89966 -21.218 -69.4013 1.04656 27.4032 -0.255162 -49.5692 4.02139 -4.66018 -7.95735 -29.7211 33.1059 0.0 0.0 0.0 3.80459 13.558 1.8983 -5.05109 0.174765 0.755242 27.9794 8.7864 -3.67154 -4.59725 0.0 0.0 -0.0 0.0 -0.0 -1.09409 11.0111 2.1244 -18.3396 -0.311703 -2.78512 35.5536 -11.0023 4.47228 -2.46242 0.0 0.0 0.0 0.0 0.0 
598.904 695.355 -470.18 172.027 -84.8154 165.835 -0.628544 0.689572 2.63243 -0.624839 0.520728 2.67094 -0.597487 -0.0805007 2.72 -0.60764 0.349923 2.69862 -8.85153 3.65743 -6.74371 -8.73333 11.5296 -5.81121 -0.0 0.0 -0.0 0.509032 19.3688 3.01702 -2.69583 -18.4931 75.6243 0.748681 -20.3485 0.134364 -29.6638 -1.92484 3.22392 -2.3893 29.4289 -1.32027 -0.0 0.0 -0.0 11.7252 28.2146 -22.4904 3.94862 -20.7851 -69.6459 1.06417 27.7956 -0.263319 -49.0314 3.95871 -4.63129 -7.97788 -29.6284 33.3492 0.0 0.0 0.0 6.18772 12.713 1.89308 -5.80422 0.195089 0.869034 24.6978 8.90833 -3.29808 -5.30133 0.0 0.0 -0.0 0.0 -0.0 -2.86079 11.1853 2.2542 -14.727 -0.321171 -2.231 35.4432 -9.45156 4.45166 -3.40674 0.0 0.0 0.0 0.0 0.0 
621.439 691.878 -468.489 149.642 -83.9797 143.249 -0.948923 0.757505 2.7007 -0.945055 0.584184 2.74339 -0.913395 -0.0499736 2.80441 -0.924154 0.393383 2.77715 -8.13062 4.0936 -6.90375 -7.99411 12.5083 -5.95864 -0.0 0.0 -0.0 0.276964 19.793 2.71672 -4.59253 -16.7847 74.8052 0.617118 -16.9986 0.0922223 -28.7256 -1.83951 3.13914 -2.06045 28.5731 0.0139198 -0.0 0.0 -0.0 11.5858 26.907 -22.334 5.38757 -21.2282 -69.7114 1.0349 27.1417 -0.249817 -45.2811 3.5295 -4.41363 -7.25754 -29.6974 28.5697 0.0 0.0 0.0 10.4206 12.33 1.77506 -10.8378 0.292317 1.63508 18.1563 11.3078 -2.50576 -6.3168 0.0 0.0 -0.0 0.0 -0.0 -8.323 13.9091 3.10614 -14.3296 -0.32008 -2.17005 37.1406 -5.29815 4.60155 -4.34684 0.0 0.0 0.0 0.0 0.0 
630.793 690.768 -468.17 145.398 -84.3334 138.68 -1.02086 0.791904 2.72743 -1.01693 0.616815 2.77225 -0.9832 -0.0281223 2.83985 -0.994207 0.420551 2.8087 -7.97461 3.64059 -6.45353 -7.85266 11.3568 -5.62548 -0.0 0.0 -0.0 0.17071 20.0305 2.58564 -5.65021 -15.0577 74.7061 0.570076 -15.7698 0.0789521 -28.7129 -1.83837 3.13799 -2.00243 27.7404 -0.0757533 -0.0 0.0 -0.0 11.2061 27.8872 -21.3578 5.93655 -20.2936 -71.4794 1.12152 29.0542 -0.29062 -47.6366 3.79743 -4.55362 -7.53593 -29.7526 30.2924 0.0 0.0 0.0 11.6434 12.2311 1.99911 -9.66133 0.275628 1.45534 13.4369 12.7953 -1.89374 -7.14676 0.0 0.0 -0.0 0.0 -0.0 -10.1945 10.2227 3.83667 -12.8027 -0.311952 -1.93592 37.1771 -3.36016 4.60759 -4.61501 0.0 0.0 0.0 0.0 0.0 
